<svg width="8" height="21" viewBox="0 0 8 21" fill="none" xmlns="http://www.w3.org/2000/svg">
<path d="M2.09161 4.57436C1.58109 4.08987 1.26316 3.41359 1.26316 2.66602C1.26316 1.19602 2.49095 0 4 0C5.50905 0 6.73684 1.19602 6.73684 2.66602C6.73684 3.41359 6.41891 4.08987 5.90839 4.57436C7.15345 5.23558 8 6.52229 8 7.99805V13.002C8 13.3418 7.71727 13.6172 7.36842 13.6172H6.73684V20.3848C6.73684 20.7246 6.45411 21 6.10526 21H1.89474C1.54589 21 1.26316 20.7246 1.26316 20.3848V13.6172H0.631578C0.28273 13.6172 0 13.3418 0 13.002V7.99805C0 6.52229 0.846546 5.23558 2.09161 4.57436ZM5.47368 2.66602C5.47368 1.87438 4.81266 1.23047 4 1.23047C3.18734 1.23047 2.52632 1.87438 2.52632 2.66602C2.52632 3.45765 3.18734 4.10156 4 4.10156C4.81266 4.10156 5.47368 3.45765 5.47368 2.66602ZM2.52632 19.7695H5.47368V13.6172H2.52632V19.7695ZM1.26316 12.3867H6.73684V7.99805C6.73684 6.52805 5.50905 5.33203 4 5.33203C2.49095 5.33203 1.26316 6.52805 1.26316 7.99805V12.3867Z" fill="#373F41"/>
</svg>
